<svg width="1440" height="740" xmlns="http://www.w3.org/2000/svg">
 <defs>
  <linearGradient y2="0.90349" x2="0.44457" y1="-0.47484" x1="1.13523" id="paint0_linear">
   <stop stop-color="#AA3E87"/>
   <stop stop-color="#3B2F4E" offset="0.0001"/>
   <stop stop-color="#763187" offset="1"/>
  </linearGradient>
  <linearGradient y2="0.89313" x2="0.46145" y1="-0.50573" x1="1.13112" id="paint1_linear">
   <stop stop-color="#AA3E87"/>
   <stop stop-color="#3B2F4E" offset="0.0001"/>
   <stop stop-color="#763187" offset="1"/>
  </linearGradient>
  <linearGradient y2="0.01332" x2="0.00996" y1="0.99536" x1="0.99549" id="paint2_linear">
   <stop stop-color="#FEA7AF" offset="0.00538"/>
   <stop stop-opacity="0" stop-color="#EA47AC" offset="0.9946"/>
  </linearGradient>
  <linearGradient y2="0.01218" x2="0.0129" y1="0.99329" x1="0.99843" id="paint3_linear">
   <stop stop-color="#FEA7AF" offset="0.00538"/>
   <stop stop-opacity="0" stop-color="#EA47AC" offset="0.9946"/>
  </linearGradient>
  <linearGradient y2="0.01396" x2="0.01039" y1="0.99537" x1="0.99744" id="paint4_linear">
   <stop stop-color="#FEA7AF" offset="0.00538"/>
   <stop stop-opacity="0" stop-color="#EA47AC" offset="0.9946"/>
  </linearGradient>
  <linearGradient y2="0.0135" x2="0.00892" y1="0.99339" x1="0.99455" id="paint5_linear">
   <stop stop-color="#FEA7AF" offset="0.00538"/>
   <stop stop-opacity="0" stop-color="#EA47AC" offset="0.9946"/>
  </linearGradient>
  <linearGradient y2="0.01186" x2="0.0096" y1="0.99325" x1="0.99665" id="paint6_linear">
   <stop stop-color="#FEA7AF" offset="0.00538"/>
   <stop stop-opacity="0" stop-color="#EA47AC" offset="0.9946"/>
  </linearGradient>
  <linearGradient y2="0.01283" x2="0.00764" y1="0.98995" x1="0.99326" id="paint7_linear">
   <stop stop-color="#FEA7AF" offset="0.00538"/>
   <stop stop-opacity="0" stop-color="#EA47AC" offset="0.9946"/>
  </linearGradient>
  <linearGradient y2="0.01188" x2="0.00938" y1="0.99326" x1="0.99666" id="paint8_linear">
   <stop stop-color="#FEA7AF" offset="0.00538"/>
   <stop stop-opacity="0" stop-color="#EA47AC" offset="0.9946"/>
  </linearGradient>
  <linearGradient y2="0.01282" x2="0.00744" y1="0.98994" x1="0.9931" id="paint9_linear">
   <stop stop-color="#FEA7AF" offset="0.00538"/>
   <stop stop-opacity="0" stop-color="#EA47AC" offset="0.9946"/>
  </linearGradient>
  <linearGradient y2="0.01187" x2="0.00938" y1="0.99326" x1="0.99666" id="paint10_linear">
   <stop stop-color="#FEA7AF" offset="0.00538"/>
   <stop stop-opacity="0" stop-color="#EA47AC" offset="0.9946"/>
  </linearGradient>
  <linearGradient y2="0.01282" x2="0.00744" y1="0.98994" x1="0.9931" id="paint11_linear">
   <stop stop-color="#FEA7AF" offset="0.00538"/>
   <stop stop-opacity="0" stop-color="#EA47AC" offset="0.9946"/>
  </linearGradient>
  <linearGradient y2="0.01186" x2="0.00937" y1="0.99325" x1="0.99665" id="paint12_linear">
   <stop stop-color="#FEA7AF" offset="0.00538"/>
   <stop stop-opacity="0" stop-color="#EA47AC" offset="0.9946"/>
  </linearGradient>
  <linearGradient y2="0.01185" x2="0.00937" y1="0.99326" x1="0.99665" id="paint13_linear">
   <stop stop-color="#FEA7AF" offset="0.00538"/>
   <stop stop-opacity="0" stop-color="#EA47AC" offset="0.9946"/>
  </linearGradient>
  <linearGradient y2="0.01284" x2="0.00744" y1="0.98997" x1="0.99313" id="paint14_linear">
   <stop stop-color="#FEA7AF" offset="0.00538"/>
   <stop stop-opacity="0" stop-color="#EA47AC" offset="0.9946"/>
  </linearGradient>
 </defs>
 <g>
  <title>Layer 1</title>
  <path id="svg_1" fill-opacity="0.3" fill="url(#paint0_linear)" d="m78,621c-69.60001,-22.4 -170,-10.5 -200.5,0l-56,23l-0.5,-637.5l1723,0l0,399.5c-12.5,34 -64.91,108.784 -192,123c-147.5,16.5 -187,-36 -320.5,-47.5c-114,-9.82 -86,46 -265,77c-179,31 -229.5,-3 -342.5,71c-113,74 -259,19.5 -346,-8.5z"/>
  <path id="svg_2" fill="url(#paint1_linear)" d="m71,615.5c-69.60001,-22.4 -149,8.088 -177.5,15c-8.091,2.958 -22.274,4.369 -35.513,5.025c-45.069,2.833 -90.987,-5.025 -90.987,-5.025l15,-630.5l1762,0l0,384c-12.5,34 -64.91,106.284 -192,120.5c-147.5,16.5 -167.5,-13 -301,-24.5c-114,-9.82 -119.5,53.5 -298.5,84.5c-179,31 -215.5,-31 -328.5,43c-113,74 -266,36 -353,8z"/>
  <g id="svg_3" opacity="0.7">
   <path id="svg_4" fill-opacity="0.7" fill="url(#paint2_linear)" d="m1188.56,425.22l24.39,22.396c0.13,0.125 0.13,0.312 0,0.499c-0.12,0.125 -0.31,0.125 -0.5,0.063l-25.14,-21.523c-0.37,-0.312 -0.43,-0.936 -0.06,-1.31c0.38,-0.437 0.94,-0.437 1.31,-0.125z"/>
   <path id="svg_5" fill-opacity="0.7" fill="url(#paint3_linear)" d="m1197.67,433.829l14.91,13.725c0.06,0.062 0.06,0.187 0,0.312c-0.06,0.062 -0.19,0.062 -0.31,0l-15.41,-13.163c-0.25,-0.188 -0.25,-0.562 -0.06,-0.811c0.25,-0.25 0.62,-0.312 0.87,-0.063z"/>
  </g>
  <g id="svg_6" opacity="0.35">
   <path id="svg_7" fill="url(#paint4_linear)" d="m1289.51,252.214l23.8,21.9c0.1,0.1 0.1,0.3 0,0.5c-0.1,0.1 -0.3,0.1 -0.5,0l-24.5,-21c-0.4,-0.3 -0.4,-0.9 -0.1,-1.3c0.4,-0.4 0.9,-0.4 1.3,-0.1z" opacity="0.35"/>
   <path id="svg_8" fill="url(#paint5_linear)" d="m1298.41,260.614l14.6,13.4c0.1,0.1 0.1,0.2 0,0.3c-0.1,0.1 -0.2,0.1 -0.3,0l-15,-12.9c-0.2,-0.2 -0.3,-0.5 -0.1,-0.8c0.2,-0.2 0.6,-0.2 0.8,0z" opacity="0.35"/>
  </g>
  <path id="svg_9" fill="url(#paint6_linear)" d="m1073.51,66.2139l23.8,21.8999c0.1,0.1 0.1,0.3 0,0.5c-0.1,0.1 -0.3,0.1 -0.5,0l-24.5,-21c-0.4,-0.3 -0.4,-0.9 -0.1,-1.3c0.4,-0.4 0.9,-0.3999 1.3,-0.0999z"/>
  <path id="svg_10" fill="url(#paint7_linear)" d="m1082.41,74.6139l14.6,13.4c0.1,0.1 0.1,0.2 0,0.3c-0.1,0.1 -0.2,0.1 -0.3,0l-15,-12.9c-0.2,-0.2 -0.3,-0.5 -0.1,-0.8c0.2,-0.2 0.6,-0.3 0.8,0z"/>
  <path id="svg_11" fill-opacity="0.2" fill="url(#paint8_linear)" d="m218.068,310.292l32.519,29.922c0.136,0.137 0.136,0.41 0,0.684c-0.137,0.136 -0.41,0.136 -0.684,0l-33.474,-28.693c-0.547,-0.41 -0.547,-1.23 -0.137,-1.776c0.547,-0.547 1.23,-0.547 1.776,-0.137z"/>
  <path id="svg_12" fill-opacity="0.3" fill="url(#paint9_linear)" d="m230.229,321.769l19.948,18.309c0.136,0.136 0.136,0.273 0,0.41c-0.137,0.136 -0.274,0.136 -0.41,0l-20.495,-17.626c-0.273,-0.273 -0.41,-0.683 -0.136,-1.093c0.273,-0.273 0.819,-0.41 1.093,0z"/>
  <path id="svg_13" fill-opacity="0.5" fill="url(#paint10_linear)" d="m141.068,100.292l32.519,29.922c0.136,0.137 0.136,0.41 0,0.684c-0.137,0.136 -0.41,0.136 -0.684,0l-33.474,-28.693c-0.547,-0.41 -0.547,-1.23 -0.137,-1.776c0.547,-0.5467 1.23,-0.5467 1.776,-0.137z"/>
  <path id="svg_14" fill-opacity="0.5" fill="url(#paint11_linear)" d="m153.229,111.769l19.948,18.309c0.136,0.136 0.136,0.273 0,0.41c-0.137,0.136 -0.274,0.136 -0.41,0l-20.495,-17.626c-0.273,-0.273 -0.41,-0.683 -0.136,-1.093c0.273,-0.273 0.819,-0.41 1.093,0z"/>
  <path id="svg_15" fill="url(#paint12_linear)" d="m783.514,59.2139l23.8,21.8999c0.1,0.1 0.1,0.3 0,0.5c-0.1,0.1 -0.3,0.1 -0.5,0l-24.5,-21c-0.4,-0.3 -0.4,-0.9 -0.1,-1.3c0.4,-0.4 0.9,-0.3999 1.3,-0.0999z"/>
  <path id="svg_16" fill="url(#paint13_linear)" d="m554.514,411.214l23.8,21.9c0.1,0.1 0.1,0.3 0,0.5c-0.1,0.1 -0.3,0.1 -0.5,0l-24.5,-21c-0.4,-0.3 -0.4,-0.9 -0.1,-1.3c0.4,-0.4 0.9,-0.4 1.3,-0.1z"/>
  <path id="svg_17" fill="url(#paint14_linear)" d="m484.909,124.189l14.6,13.4c0.1,0.1 0.1,0.2 0,0.3c-0.1,0.1 -0.2,0.1 -0.3,0l-15,-12.9c-0.2,-0.2 -0.3,-0.5 -0.1,-0.8c0.2,-0.2 0.6,-0.3 0.8,0z"/>
  <path id="svg_18" fill-opacity="0.5" fill="#FEA7AF" d="m1079.85,5.386l1.72,2.0791l2.35,0.77849l-1.91,1.69773l-0.92,2.54318l-1.56,-2.1081l-2.54,-0.91456l2.11,-1.56165l0.75,-2.51419z"/>
  <path id="svg_19" fill-opacity="0.6" fill="#FEA7AF" d="m1077.72,138.766l1.09,1.34l1.63,0.565l-1.34,1.086l-0.56,1.631l-1.09,-1.341l-1.63,-0.564l1.34,-1.086l0.56,-1.631z"/>
  <path id="svg_20" fill-opacity="0.4" fill="#FEA7AF" d="m871.431,386.199l1.058,1.176l1.63,0.564l-1.34,1.087l-0.565,1.63l-1.086,-1.34l-1.631,-0.565l1.341,-1.086l0.593,-1.466z"/>
  <path id="svg_21" fill-opacity="0.5" fill="#FEA7AF" d="m759.1,474.978l0.892,1.205l1.631,0.564l-1.341,1.087l-0.399,1.601l-1.086,-1.34l-1.631,-0.565l1.341,-1.086l0.593,-1.466z"/>
  <path id="svg_22" fill="white" d="m727.543,74.9018l1.087,1.3407l1.63,0.5643l-1.34,1.0865l-0.565,1.6308l-1.086,-1.3407l-1.631,-0.5644l1.341,-1.0864l0.564,-1.6308z" opacity="0.29"/>
  <path id="svg_23" fill="white" d="m695.74,397.522l1.057,1.176l1.631,0.564l-1.341,1.087l-0.564,1.631l-1.086,-1.341l-1.631,-0.564l1.34,-1.087l0.594,-1.466z" opacity="0.29"/>
  <path id="svg_24" fill="white" d="m666.868,175.42l1.058,1.175l1.63,0.565l-1.34,1.086l-0.565,1.631l-1.086,-1.341l-1.631,-0.564l1.341,-1.086l0.593,-1.466z" opacity="0.29"/>
  <path id="svg_25" fill="white" d="m870.305,108.2l1.086,1.341l1.466,0.593l-1.176,1.057l-0.564,1.631l-1.086,-1.341l-1.631,-0.564l1.34,-1.086l0.565,-1.631z" opacity="0.29"/>
  <path id="svg_26" fill="#FEA7AF" d="m815.151,509.804l2.144,2.516l3.097,1.158l-2.517,2.144l-1.157,3.096l-2.144,-2.516l-3.097,-1.158l2.517,-2.144l1.157,-3.096z" opacity="0.29"/>
  <path id="svg_27" fill="white" d="m665.157,55.9127l2.008,2.7104l3.262,1.1287l-2.711,2.0078l-0.963,3.2326l-2.173,-2.6814l-3.233,-0.9637l2.682,-2.1729l1.128,-3.2615z" opacity="0.29"/>
  <path id="svg_28" fill="white" d="m1322.8,69.0122l2.17,2.6815l3.07,0.9926l-2.52,2.1439l-1.13,3.2615l-2.17,-2.6814l-3.1,-1.1577l2.55,-1.9788l1.13,-3.2616z" opacity="0.29"/>
  <path id="svg_29" fill="white" d="m1348.01,289.04l2.01,2.71l3.23,0.964l-2.68,2.173l-0.96,3.232l-2.18,-2.681l-3.26,-1.129l2.71,-2.008l1.13,-3.261z" opacity="0.29"/>
  <path id="svg_30" fill="white" d="m724.375,341.609l0.892,1.205l1.631,0.564l-1.37,0.922l-0.399,1.601l-1.086,-1.34l-1.437,-0.429l1.176,-1.057l0.593,-1.466z" opacity="0.29"/>
  <path id="svg_31" fill="#FEA7AF" d="m1300.9,410.239l1.09,1.341l1.44,0.428l-1.18,1.058l-0.59,1.465l-0.89,-1.204l-1.64,-0.565l1.37,-0.921l0.4,-1.602z" opacity="0.29"/>
  <path id="svg_32" fill="#FEA7AF" d="m1196.11,63.7045l1.08,1.3407l1.44,0.4283l-1.18,1.0574l-0.59,1.4657l-0.89,-1.2046l-1.63,-0.5644l1.37,-0.9214l0.4,-1.6017z" opacity="0.29"/>
  <path id="svg_33" fill="white" d="m1305.97,180.538l1.06,1.176l1.47,0.593l-1.21,0.893l-0.56,1.63l-0.92,-1.369l-1.6,-0.4l1.34,-1.086l0.42,-1.437z" opacity="0.29"/>
  <path id="svg_34" fill="white" d="m1220.55,4.27355l0.89,1.20464l1.63,0.56435l-1.37,0.92137l-0.4,1.60174l-1.08,-1.34069l-1.44,-0.42826l1.17,-1.05746l0.6,-1.46569z" opacity="0.29"/>
  <path id="svg_35" fill="#FEA7AF" d="m881.13,235.243l1.756,2.244l2.708,0.886l-2.215,1.921l-0.886,2.708l-1.921,-2.215l-2.737,-1.051l2.244,-1.755l1.051,-2.738z" opacity="0.29"/>
  <path id="svg_36" fill-opacity="0.5" fill="white" d="m937.94,298.979l2.59,3.119l3.815,1.372l-3.148,2.425l-1.372,3.815l-2.425,-3.148l-3.786,-1.207l3.119,-2.59l1.207,-3.786z"/>
  <path id="svg_37" fill-opacity="0.5" fill="white" d="m1236.36,248.247l0.89,1.205l1.27,0.457l-1.04,0.863l-0.46,1.272l-0.86,-1.04l-1.27,-0.457l1.04,-0.863l0.43,-1.437z"/>
  <path id="svg_38" fill-opacity="0.6" fill="white" d="m928.136,28.9969l0.892,1.2047l1.271,0.4572l-1.039,0.8634l-0.457,1.2716l-0.864,-1.0396l-1.436,-0.4282l1.204,-0.8924l0.429,-1.4367z"/>
  <path id="svg_39" fill="#FEA7AF" d="m781.273,193.771l1.533,1.943l2.543,0.915l-2.108,1.562l-0.778,2.349l-1.533,-1.943l-2.349,-0.779l1.914,-1.697l0.778,-2.35z" opacity="0.33"/>
  <path id="svg_40" fill="#FEA7AF" d="m1162.31,266.533l1.09,1.34l1.82,0.701l-1.5,1.115l-0.57,1.631l-1.08,-1.341l-1.8,-0.535l1.48,-1.281l0.56,-1.63z" opacity="0.33"/>
  <path id="svg_41" fill="#FEA7AF" d="m1210.84,307.357l1.11,1.505l1.63,0.565l-1.34,1.086l-0.53,1.796l-1.28,-1.477l-1.63,-0.564l1.34,-1.086l0.7,-1.825z" opacity="0.33"/>
  <path id="svg_42" fill="#FEA7AF" d="m1178.98,137.219l1.12,1.506l1.8,0.535l-1.51,1.116l-0.54,1.795l-1.11,-1.505l-1.63,-0.565l1.34,-1.086l0.53,-1.796z" opacity="0.33"/>
  <path id="svg_43" fill="#FEA7AF" d="m1049.31,191.941l1.12,1.506l1.8,0.535l-1.51,1.116l-0.54,1.796l-1.11,-1.506l-1.63,-0.565l1.34,-1.086l0.53,-1.796z" opacity="0.33"/>
  <path id="svg_44" fill-opacity="0.5" fill="#FEA7AF" d="m429.163,406.603l-2.348,1.339l-1.174,2.178l-1.34,-2.179l-2.345,-1.343l2.347,-1.172l1.342,-2.345l1.172,2.347l2.346,1.175z"/>
  <path id="svg_45" fill-opacity="0.4" fill="#FEA7AF" d="m458.131,514.789l-1.509,0.837l-0.839,1.508l-0.837,-1.509l-1.508,-0.839l1.509,-0.837l0.839,-1.508l0.837,1.509l1.508,0.839z"/>
  <path id="svg_46" fill-opacity="0.7" fill="#FEA7AF" d="m207.541,206.684l-1.342,0.669l-0.839,1.508l-0.837,-1.509l-1.508,-0.671l1.509,-0.837l0.839,-1.508l0.837,1.509l1.341,0.839z"/>
  <path id="svg_47" fill="white" d="m474.237,147.344l-1.509,0.837l-0.839,1.508l-0.837,-1.509l-1.508,-0.839l1.509,-0.837l0.838,-1.508l0.838,1.509l1.508,0.839z" opacity="0.29"/>
  <path id="svg_48" fill="white" d="m443.611,71.4005l-1.341,0.8372l-0.839,1.508l-0.838,-1.509l-1.508,-0.8389l1.509,-0.8372l0.839,-1.508l0.838,1.509l1.34,0.8389z" opacity="0.29"/>
  <path id="svg_49" fill="white" d="m593.302,521.498l-1.509,0.837l-0.838,1.341l-0.838,-1.342l-1.508,-0.839l1.509,-0.837l0.839,-1.508l0.837,1.509l1.508,0.839z" opacity="0.29"/>
  <path id="svg_50" fill="#FEA7AF" d="m342.051,334.312l-2.85,1.675l-1.678,2.848l-1.674,-2.851l-2.849,-1.677l2.851,-1.675l1.678,-2.848l1.674,2.85l2.848,1.678z" opacity="0.29"/>
  <path id="svg_51" fill="white" d="m279.331,127.992l-3.018,1.507l-1.678,3.016l-1.506,-3.018l-3.016,-1.51l3.018,-1.674l1.51,-3.017l1.674,3.018l3.016,1.678z" opacity="0.29"/>
  <path id="svg_52" fill="white" d="m376.672,734.576l-3.018,1.674l-1.51,2.849l-1.674,-2.851l-3.016,-1.678l3.018,-1.674l1.677,-2.848l1.507,2.85l3.016,1.678z" opacity="0.29"/>
  <path id="svg_53" fill="white" d="m155.608,721.202l-3.018,1.507l-1.51,3.016l-1.674,-3.018l-3.016,-1.51l3.018,-1.675l1.678,-3.016l1.506,3.018l3.016,1.678z" opacity="0.29"/>
  <path id="svg_54" fill="white" d="m72.8129,190.353l-1.3413,0.669l-0.839,1.508l-0.6695,-1.509l-1.5081,-0.671l1.509,-0.837l0.6712,-1.341l0.8373,1.342l1.3404,0.839z" opacity="0.29"/>
  <path id="svg_55" fill="#FEA7AF" d="m229.197,425.925l-1.341,0.669l-0.839,1.508l-0.67,-1.509l-1.508,-0.671l1.509,-0.837l0.672,-1.34l0.837,1.341l1.34,0.839z" opacity="0.29"/>
  <path id="svg_56" fill="#FEA7AF" d="m57.8041,353.41l-1.509,0.837l-0.6712,1.341l-0.8373,-1.342l-1.3403,-0.839l1.3412,-0.669l0.839,-1.508l0.6695,1.509l1.5081,0.671z" opacity="0.29"/>
  <path id="svg_57" fill="#FEA7AF" d="m403.899,610.732l-1.509,0.837l-0.671,1.341l-0.837,-1.342l-1.341,-0.839l1.341,-0.669l0.839,-1.508l0.67,1.509l1.508,0.671z" opacity="0.29"/>
  <path id="svg_58" fill="white" d="m269.762,698.644l-1.342,0.838l-0.839,1.34l-0.669,-1.341l-1.508,-0.839l1.509,-0.67l0.671,-1.508l0.837,1.509l1.341,0.671z" opacity="0.29"/>
  <path id="svg_59" fill="white" d="m458.183,645.123l-1.342,0.67l-0.839,1.508l-0.669,-1.509l-1.508,-0.671l1.509,-0.837l0.671,-1.341l0.837,1.341l1.341,0.839z" opacity="0.29"/>
  <path id="svg_60" fill="#FEA7AF" d="m356.722,464.216l-2.515,1.339l-1.342,2.514l-1.507,-2.515l-2.514,-1.343l2.516,-1.507l1.51,-2.513l1.339,2.515l2.513,1.51z" opacity="0.29"/>
  <path id="svg_61" fill="white" d="m215.17,618.328l-1.341,0.669l-0.671,1.173l-0.67,-1.174l-1.173,-0.671l1.174,-0.669l0.671,-1.173l0.67,1.173l1.34,0.672z"/>
  <path id="svg_62" fill-opacity="0.6" fill="white" d="m350.742,653.606l-1.341,0.67l-0.671,1.173l-0.67,-1.174l-1.173,-0.671l1.174,-0.67l0.671,-1.34l0.67,1.341l1.34,0.671z"/>
  <path id="svg_63" fill="#FEA7AF" d="m347.843,179.616l-2.18,1.172l-1.342,2.346l-1.172,-2.347l-2.178,-1.175l2.179,-1.172l1.175,-2.178l1.34,2.18l2.178,1.174z" opacity="0.33"/>
  <path id="svg_64" fill="#FEA7AF" d="m65.5874,533.193l-1.509,0.837l-1.0067,1.676l-0.8371,-1.677l-1.5079,-0.839l1.509,-0.837l0.839,-1.676l1.0047,1.677l1.508,0.839z" opacity="0.33"/>
  <path id="svg_65" fill="#FEA7AF" d="m161.39,582.93l-1.677,0.837l-0.838,1.508l-0.838,-1.509l-1.675,-0.839l1.676,-1.005l0.839,-1.507l0.838,1.508l1.675,1.007z" opacity="0.33"/>
  <path id="svg_66" fill="#FEA7AF" d="m339.893,578.01l-1.676,0.837l-0.839,1.676l-0.837,-1.677l-1.676,-0.839l1.677,-0.837l0.838,-1.508l0.838,1.509l1.675,0.839z" opacity="0.33"/>
  <path id="svg_67" fill="#FEA7AF" d="m303.1,443.903l-1.676,0.837l-0.839,1.676l-0.837,-1.677l-1.676,-0.839l1.677,-0.837l0.839,-1.508l0.837,1.509l1.675,0.839z" opacity="0.33"/>
  <path id="svg_68" fill="#FEA7AF" d="m682.426,628.889l-1.509,0.838l-0.839,1.508l-1.005,-1.51l-1.508,-0.839l1.509,-1.004l1.007,-1.508l0.837,1.509l1.508,1.006z" opacity="0.33"/>
  <circle id="svg_69" fill-opacity="0.4" fill="#8E40A1" r="36" cy="500" cx="175"/>
  <circle id="svg_70" fill-opacity="0.2" fill="#8E40A1" r="23.5" cy="390.5" cx="1049.5"/>
  <circle id="svg_71" fill-opacity="0.3" fill="#8E40A2" r="28" cy="78.9988" cx="415"/>
  <circle id="svg_72" fill-opacity="0.28" fill="#8E40A2" r="23.5" cy="362.5" cx="1348.5"/>
  <path id="svg_73" fill-opacity="0.4" fill="#8E40A2" d="m1117,335.5c0,4.694 -3.81,8.5 -8.5,8.5c-4.69,0 -8.5,-3.806 -8.5,-8.5c0,-4.694 3.81,-8.5 8.5,-8.5c4.69,0 8.5,3.806 8.5,8.5z"/>
  <path id="svg_74" fill-opacity="0.2" fill="#8E40A1" d="m96,496.499c0,5.246 -4.2533,9.5 -9.5,9.5c-5.2467,0 -9.5,-4.254 -9.5,-9.5c0,-5.247 4.2533,-9.5 9.5,-9.5c5.2467,0 9.5,4.253 9.5,9.5z"/>
  <path id="svg_75" fill-opacity="0.8" fill="#8E40A1" d="m60,125.499c0,5.246 -4.2533,9.5 -9.5,9.5c-5.2467,0 -9.5,-4.254 -9.5,-9.5c0,-5.247 4.2533,-9.5 9.5,-9.5c5.2467,0 9.5,4.253 9.5,9.5z"/>
  <path id="svg_76" fill-opacity="0.3" fill="#8E40A1" d="m1309,69.4988c0,5.2467 -4.25,9.5 -9.5,9.5c-5.25,0 -9.5,-4.2533 -9.5,-9.5c0,-5.2467 4.25,-9.5 9.5,-9.5c5.25,0 9.5,4.2533 9.5,9.5z"/>
  <path id="svg_77" fill-opacity="0.3" fill="#8E40A1" d="m169,49c0,7.732 -6.268,14 -14,14c-7.732,0 -14,-6.268 -14,-14c0,-7.732 6.268,-14 14,-14c7.732,0 14,6.268 14,14z"/>
 </g>
</svg>